<?xml version="1.0" encoding="utf-8"?>
<svg version="1.1" xmlns:xlink="http://www.w3.org/1999/xlink" width="13px" height="16px" xmlns="http://www.w3.org/2000/svg">
  <g transform="matrix(1 0 0 1 -8 -10 )">
    <path d="M 6.34552601959746 0.0173635563380285  C 4.17146451271186 0.0173635563380285  2.40873113082627 1.81978433098592  2.40873113082627 4.04375  C 2.40873113082627 5.48230633802817  3.15889499470339 6.81128961267606  4.37712857521186 7.53096390845071  C 5.59536215572034 8.25026408450704  7.09571140095339 8.25026408450704  8.31394498146186 7.53096390845071  C 9.53217856197034 6.81128961267606  10.2823424258475 5.48230633802817  10.2823424258475 4.04375  C 10.2823424258475 1.81978433098592  8.52038367319915 0.0173635563380285  6.34552601959746 0.0173635563380285  Z M 12.955222126589 14.2769366197183  C 12.9528767213983 11.4038072183099  10.6755743511653 9.07592429577465  7.86638142213983 9.07389964788733  L 5.13125165519068 9.07389964788733  C 2.32205872616525 9.07469190140845  0.0447563559322034 11.4038072183099  0.0447563559322034 14.2769366197183  C 0.0447563559322034 15.2178477112676  0.790982521186441 15.9826584507042  1.71371656514831 15.9826584507042  L 11.2870365466102 15.9826584507042  C 12.2082213320975 15.9826584507042  12.955222126589 15.2190580985916  12.955222126589 14.2769366197183  Z " fill-rule="nonzero" fill="#ffffff" stroke="none" transform="matrix(1 0 0 1 8 10 )" />
  </g>
</svg>