<?xml version="1.0" encoding="utf-8"?>
<svg version="1.1" xmlns:xlink="http://www.w3.org/1999/xlink" width="13px" height="12px" xmlns="http://www.w3.org/2000/svg">
  <g transform="matrix(1 0 0 1 -11 -11 )">
    <path d="M 0.882071341783708 0.0551523947750365  C 0.882071341783708 0.0551523947750365  0.882071328639821 0.0551523947750365  0.88207132863982 0  L 12.0549748442692 0  C 12.0549748442692 0.0551523947750365  12.0549748311253 0.0551523947750365  12.0549748311253 0.0551523947750365  C 12.5421293741961 0.0551523947750365  12.9370461597652 0.524846323173743  12.9370461597652 1.10424314658926  C 12.9370461597652 1.68363997000478  12.5421293741961 2.15333389840348  12.0549748311253 2.15333389840348  L 0.882071328639821 2.15333389840348  C 0.394916798712949 2.15333389840348  0 1.68363997000478  0 1.10424314658926  C 0 0.524846323173743  0.394916798712949 0.0551523947750365  0.882071341783708 0.0551523947750365  Z M 0.882071328639821 4.95090924818578  C 0.882071328639821 4.95090924818578  0.882071328639821 4.95090924818578  0.88207132863982 5  L 12.0549748442692 5  C 12.0549748442692 4.95090924818578  12.0549748442692 4.95090924818578  12.0549748442692 4.95090924818578  C 12.54212938734 4.95090924818578  12.937046172909 5.42060317658448  12.937046172909 6  C 12.937046172909 6.57939682341552  12.54212938734 7.04909075181422  12.0549748442692 7.04909075181422  C 12.0549748442692 7.04909075181422  12.0549748442692 7.04909075181422  12.0549748442692 7  L 0.882071328639821 7  C 0.882071328639821 7.04909075181422  0.882071328639821 7.04909075181422  0.882071328639821 7.04909075181422  C 0.394916785569062 7.04909075181422  0 6.57939682341552  0 6  C 0 5.42060317658448  0.394916785569062 4.95090924818578  0.882071328639821 4.95090924818578  Z M 0.88207132863982 9.84666610159652  L 12.0549748442692 9.84666610159652  C 12.54212938734 9.84666610159652  12.937046172909 10.3163600299952  12.937046172909 10.8957568534107  C 12.937046172909 11.4751536768263  12.54212938734 11.944847605225  12.0549748442692 11.944847605225  C 12.0549748442692 11.944847605225  12.0549748442692 11.944847605225  12.0549748442692 12  L 0.882071328639821 12  C 0.882071328639821 11.944847605225  0.882071328639821 11.944847605225  0.882071328639821 11.944847605225  C 0.394916785569062 11.944847605225  0 11.4751536768263  0 10.8957568534107  C 0 10.3163600299952  0.394916785569062 9.84666610159652  0.882071328639821 9.84666610159652  Z " fill-rule="nonzero" fill="#fdfdfd" stroke="none" transform="matrix(1 0 0 1 11 11 )" />
  </g>
</svg>