<?xml version="1.0" encoding="utf-8"?>
<svg version="1.1" xmlns:xlink="http://www.w3.org/1999/xlink" width="11px" height="12px" xmlns="http://www.w3.org/2000/svg">
  <g transform="matrix(1 0 0 1 -9 -712 )">
    <path d="M 10.9565770089286 4.97464453124996  C 10.9511261160714 4.97464453124996  10.9456629464286 4.97486718749997  10.9402366071428 4.97486718749997  C 9.82807031249996 4.97486718749997  8.7979129464286 4.63967578125005  7.95492745535711 4.06960546875007  L 7.95492745535711 8.16570703125001  C 7.95492745535711 10.2563320312501  6.1776171875 11.95109765625  3.98538839285715 11.95109765625  C 1.7930122767857 11.95109765625  0.0158370535714312 10.25635546875  0.0158370535714312 8.16570703125001  C 0.0158370535714312 6.07521093749995  1.79303683035715 4.38050390624994  3.98538839285715 4.38050390624994  C 4.20320312500002 4.38050390624994  4.41674553571431 4.39758984374998  4.62505803571429 4.4298046875  L 4.62505803571429 6.59995312499996  C 4.42577596969545 6.52846466823326  4.21460669608712 6.4919172307566  4.00171651785712 6.4920703125  C 3.02337946428571 6.4920703125  2.23020089285717 7.24833984374993  2.23020089285717 8.18136328125001  C 2.23020089285717 9.11438671874998  3.02337946428571 9.87070312499998  4.00171651785712 9.87070312499998  C 4.98015178571433 9.87070312499998  5.77323214285718 9.114375  5.77323214285718 8.18135156250003  C 5.77323214285718 8.17608984374999  5.77292522321426 8.17100390625001  5.77282700892857 8.16569531250002  L 5.77323214285718 0.0477656250000109  L 7.98771875 0.0477656250000109  C 7.98771875 1.61131640625001  9.31696316964286 2.87889843749997  10.9565770089286 2.87889843749997  L 10.9565770089286 4.97464453124996  Z " fill-rule="nonzero" fill="#ffffff" stroke="none" transform="matrix(1 0 0 1 9 712 )" />
  </g>
</svg>